<mxfile host="app.diagrams.net" modified="2021-08-24T04:03:48.465Z" agent="5.0 (Windows NT 10.0; Win64; x64) AppleWebKit/537.36 (KHTML, like Gecko) Chrome/92.0.4515.159 Safari/537.36 Edg/92.0.902.78" etag="uaeWsFHtPRfa0uRKhrO4" version="14.9.8" type="github">
  <diagram id="R2lEEEUBdFMjLlhIrx00" name="Page-1">
    <mxGraphModel dx="692" dy="481" grid="1" gridSize="10" guides="1" tooltips="1" connect="1" arrows="1" fold="1" page="1" pageScale="1" pageWidth="1100" pageHeight="850" math="0" shadow="0" extFonts="Permanent Marker^https://fonts.googleapis.com/css?family=Permanent+Marker">
      <root>
        <mxCell id="0" />
        <mxCell id="1" parent="0" />
        <mxCell id="YlgnMmfE0ZR5ilOv5xmK-1" value="Primary contact" style="rounded=0;whiteSpace=wrap;html=1;" vertex="1" parent="1">
          <mxGeometry x="360" y="270" width="120" height="60" as="geometry" />
        </mxCell>
        <mxCell id="YlgnMmfE0ZR5ilOv5xmK-2" value="" style="rounded=0;whiteSpace=wrap;html=1;fillColor=none;" vertex="1" parent="1">
          <mxGeometry x="355" y="265" width="130" height="70" as="geometry" />
        </mxCell>
        <mxCell id="YlgnMmfE0ZR5ilOv5xmK-4" value="" style="endArrow=none;html=1;entryX=1;entryY=1;entryDx=0;entryDy=0;" edge="1" parent="1" target="YlgnMmfE0ZR5ilOv5xmK-8">
          <mxGeometry width="50" height="50" relative="1" as="geometry">
            <mxPoint x="360" y="265" as="sourcePoint" />
            <mxPoint x="365" y="230" as="targetPoint" />
          </mxGeometry>
        </mxCell>
        <mxCell id="YlgnMmfE0ZR5ilOv5xmK-5" value="" style="endArrow=none;html=1;entryX=0.685;entryY=0.99;entryDx=0;entryDy=0;entryPerimeter=0;" edge="1" parent="1" target="YlgnMmfE0ZR5ilOv5xmK-13">
          <mxGeometry width="50" height="50" relative="1" as="geometry">
            <mxPoint x="390" y="265" as="sourcePoint" />
            <mxPoint x="395" y="230" as="targetPoint" />
          </mxGeometry>
        </mxCell>
        <mxCell id="YlgnMmfE0ZR5ilOv5xmK-6" value="" style="endArrow=none;html=1;entryX=0;entryY=1;entryDx=0;entryDy=0;" edge="1" parent="1" target="YlgnMmfE0ZR5ilOv5xmK-15">
          <mxGeometry width="50" height="50" relative="1" as="geometry">
            <mxPoint x="450" y="264" as="sourcePoint" />
            <mxPoint x="455" y="214" as="targetPoint" />
          </mxGeometry>
        </mxCell>
        <mxCell id="YlgnMmfE0ZR5ilOv5xmK-7" value="" style="endArrow=none;html=1;entryX=0;entryY=0.5;entryDx=0;entryDy=0;" edge="1" parent="1" target="YlgnMmfE0ZR5ilOv5xmK-16">
          <mxGeometry width="50" height="50" relative="1" as="geometry">
            <mxPoint x="470" y="264" as="sourcePoint" />
            <mxPoint x="480" y="224" as="targetPoint" />
          </mxGeometry>
        </mxCell>
        <mxCell id="YlgnMmfE0ZR5ilOv5xmK-8" value="First name" style="ellipse;whiteSpace=wrap;html=1;fillColor=none;gradientColor=none;" vertex="1" parent="1">
          <mxGeometry x="240" y="190" width="80" height="40" as="geometry" />
        </mxCell>
        <mxCell id="YlgnMmfE0ZR5ilOv5xmK-9" value="" style="endArrow=none;html=1;entryX=0.5;entryY=1;entryDx=0;entryDy=0;" edge="1" parent="1" target="YlgnMmfE0ZR5ilOv5xmK-14">
          <mxGeometry width="50" height="50" relative="1" as="geometry">
            <mxPoint x="425" y="265" as="sourcePoint" />
            <mxPoint x="430" y="230" as="targetPoint" />
          </mxGeometry>
        </mxCell>
        <mxCell id="YlgnMmfE0ZR5ilOv5xmK-11" value="Phone number" style="ellipse;whiteSpace=wrap;html=1;fillColor=none;gradientColor=none;" vertex="1" parent="1">
          <mxGeometry x="510" y="210" width="80" height="40" as="geometry" />
        </mxCell>
        <mxCell id="YlgnMmfE0ZR5ilOv5xmK-13" value="Last name" style="ellipse;whiteSpace=wrap;html=1;fillColor=none;gradientColor=none;" vertex="1" parent="1">
          <mxGeometry x="300" y="150" width="80" height="40" as="geometry" />
        </mxCell>
        <mxCell id="YlgnMmfE0ZR5ilOv5xmK-14" value="Middle name" style="ellipse;whiteSpace=wrap;html=1;fillColor=none;gradientColor=none;" vertex="1" parent="1">
          <mxGeometry x="385" y="140" width="80" height="40" as="geometry" />
        </mxCell>
        <mxCell id="YlgnMmfE0ZR5ilOv5xmK-15" value="E-mail" style="ellipse;whiteSpace=wrap;html=1;fillColor=none;gradientColor=none;" vertex="1" parent="1">
          <mxGeometry x="470" y="160" width="80" height="40" as="geometry" />
        </mxCell>
        <mxCell id="YlgnMmfE0ZR5ilOv5xmK-16" value="" style="ellipse;whiteSpace=wrap;html=1;fillColor=none;gradientColor=none;" vertex="1" parent="1">
          <mxGeometry x="505" y="205" width="90" height="50" as="geometry" />
        </mxCell>
        <mxCell id="YlgnMmfE0ZR5ilOv5xmK-17" value="" style="endArrow=none;html=1;" edge="1" parent="1">
          <mxGeometry width="50" height="50" relative="1" as="geometry">
            <mxPoint x="315" y="385" as="sourcePoint" />
            <mxPoint x="365" y="335" as="targetPoint" />
          </mxGeometry>
        </mxCell>
        <mxCell id="YlgnMmfE0ZR5ilOv5xmK-18" value="" style="endArrow=none;html=1;" edge="1" parent="1">
          <mxGeometry width="50" height="50" relative="1" as="geometry">
            <mxPoint x="370" y="385" as="sourcePoint" />
            <mxPoint x="420" y="335" as="targetPoint" />
          </mxGeometry>
        </mxCell>
        <mxCell id="YlgnMmfE0ZR5ilOv5xmK-20" value="" style="endArrow=none;html=1;" edge="1" parent="1">
          <mxGeometry width="50" height="50" relative="1" as="geometry">
            <mxPoint x="490" y="380" as="sourcePoint" />
            <mxPoint x="470" y="335" as="targetPoint" />
          </mxGeometry>
        </mxCell>
        <mxCell id="YlgnMmfE0ZR5ilOv5xmK-21" value="" style="endArrow=none;html=1;exitX=0.5;exitY=0;exitDx=0;exitDy=0;" edge="1" parent="1" source="YlgnMmfE0ZR5ilOv5xmK-35">
          <mxGeometry width="50" height="50" relative="1" as="geometry">
            <mxPoint x="470" y="455" as="sourcePoint" />
            <mxPoint x="500" y="405" as="targetPoint" />
          </mxGeometry>
        </mxCell>
        <mxCell id="YlgnMmfE0ZR5ilOv5xmK-22" value="" style="endArrow=none;html=1;entryX=1;entryY=1;entryDx=0;entryDy=0;" edge="1" parent="1" target="YlgnMmfE0ZR5ilOv5xmK-32">
          <mxGeometry width="50" height="50" relative="1" as="geometry">
            <mxPoint x="600" y="430" as="sourcePoint" />
            <mxPoint x="595" y="380" as="targetPoint" />
          </mxGeometry>
        </mxCell>
        <mxCell id="YlgnMmfE0ZR5ilOv5xmK-23" value="" style="endArrow=none;html=1;" edge="1" parent="1">
          <mxGeometry width="50" height="50" relative="1" as="geometry">
            <mxPoint x="435" y="440" as="sourcePoint" />
            <mxPoint x="485" y="390" as="targetPoint" />
          </mxGeometry>
        </mxCell>
        <mxCell id="YlgnMmfE0ZR5ilOv5xmK-24" value="" style="endArrow=none;html=1;entryX=1;entryY=0.5;entryDx=0;entryDy=0;" edge="1" parent="1" target="YlgnMmfE0ZR5ilOv5xmK-32">
          <mxGeometry width="50" height="50" relative="1" as="geometry">
            <mxPoint x="620" y="400" as="sourcePoint" />
            <mxPoint x="610" y="400" as="targetPoint" />
          </mxGeometry>
        </mxCell>
        <mxCell id="YlgnMmfE0ZR5ilOv5xmK-25" value="" style="endArrow=none;html=1;entryX=0.753;entryY=0.93;entryDx=0;entryDy=0;entryPerimeter=0;exitX=0;exitY=0;exitDx=0;exitDy=0;" edge="1" parent="1" source="YlgnMmfE0ZR5ilOv5xmK-37" target="YlgnMmfE0ZR5ilOv5xmK-32">
          <mxGeometry width="50" height="50" relative="1" as="geometry">
            <mxPoint x="555" y="450" as="sourcePoint" />
            <mxPoint x="555" y="400" as="targetPoint" />
          </mxGeometry>
        </mxCell>
        <mxCell id="YlgnMmfE0ZR5ilOv5xmK-26" value="" style="endArrow=none;html=1;entryX=0.5;entryY=1;entryDx=0;entryDy=0;exitX=0.35;exitY=0.03;exitDx=0;exitDy=0;exitPerimeter=0;" edge="1" parent="1" source="YlgnMmfE0ZR5ilOv5xmK-36" target="YlgnMmfE0ZR5ilOv5xmK-32">
          <mxGeometry width="50" height="50" relative="1" as="geometry">
            <mxPoint x="510" y="460" as="sourcePoint" />
            <mxPoint x="535" y="410" as="targetPoint" />
          </mxGeometry>
        </mxCell>
        <mxCell id="YlgnMmfE0ZR5ilOv5xmK-28" value="" style="ellipse;whiteSpace=wrap;html=1;fillColor=none;gradientColor=none;" vertex="1" parent="1">
          <mxGeometry x="260" y="10" width="80" height="40" as="geometry" />
        </mxCell>
        <mxCell id="YlgnMmfE0ZR5ilOv5xmK-29" value="" style="ellipse;whiteSpace=wrap;html=1;fillColor=none;gradientColor=none;" vertex="1" parent="1">
          <mxGeometry x="230" y="380" width="100" height="50" as="geometry" />
        </mxCell>
        <mxCell id="YlgnMmfE0ZR5ilOv5xmK-30" style="edgeStyle=orthogonalEdgeStyle;rounded=0;orthogonalLoop=1;jettySize=auto;html=1;exitX=0.5;exitY=1;exitDx=0;exitDy=0;" edge="1" parent="1" source="YlgnMmfE0ZR5ilOv5xmK-29" target="YlgnMmfE0ZR5ilOv5xmK-29">
          <mxGeometry relative="1" as="geometry" />
        </mxCell>
        <mxCell id="YlgnMmfE0ZR5ilOv5xmK-32" value="Address" style="ellipse;whiteSpace=wrap;html=1;fillColor=none;gradientColor=none;" vertex="1" parent="1">
          <mxGeometry x="485" y="370" width="80" height="40" as="geometry" />
        </mxCell>
        <mxCell id="YlgnMmfE0ZR5ilOv5xmK-33" value="Date of birth" style="ellipse;whiteSpace=wrap;html=1;fillColor=none;gradientColor=none;" vertex="1" parent="1">
          <mxGeometry x="342" y="384" width="80" height="40" as="geometry" />
        </mxCell>
        <mxCell id="YlgnMmfE0ZR5ilOv5xmK-34" value="House/unit number" style="ellipse;whiteSpace=wrap;html=1;fillColor=none;gradientColor=none;" vertex="1" parent="1">
          <mxGeometry x="370" y="435" width="80" height="40" as="geometry" />
        </mxCell>
        <mxCell id="YlgnMmfE0ZR5ilOv5xmK-35" value="Street number" style="ellipse;whiteSpace=wrap;html=1;fillColor=none;gradientColor=none;" vertex="1" parent="1">
          <mxGeometry x="405" y="480" width="80" height="40" as="geometry" />
        </mxCell>
        <mxCell id="YlgnMmfE0ZR5ilOv5xmK-36" value="Street name" style="ellipse;whiteSpace=wrap;html=1;fillColor=none;gradientColor=none;" vertex="1" parent="1">
          <mxGeometry x="490" y="490" width="80" height="40" as="geometry" />
        </mxCell>
        <mxCell id="YlgnMmfE0ZR5ilOv5xmK-37" value="Suburb" style="ellipse;whiteSpace=wrap;html=1;fillColor=none;gradientColor=none;" vertex="1" parent="1">
          <mxGeometry x="540" y="450" width="80" height="40" as="geometry" />
        </mxCell>
        <mxCell id="YlgnMmfE0ZR5ilOv5xmK-38" value="State" style="ellipse;whiteSpace=wrap;html=1;fillColor=none;gradientColor=none;" vertex="1" parent="1">
          <mxGeometry x="595" y="420" width="80" height="40" as="geometry" />
        </mxCell>
        <mxCell id="YlgnMmfE0ZR5ilOv5xmK-39" value="Post code" style="ellipse;whiteSpace=wrap;html=1;fillColor=none;gradientColor=none;" vertex="1" parent="1">
          <mxGeometry x="618" y="378" width="80" height="40" as="geometry" />
        </mxCell>
        <mxCell id="YlgnMmfE0ZR5ilOv5xmK-40" value="Positive case" style="ellipse;whiteSpace=wrap;html=1;fillColor=none;gradientColor=none;" vertex="1" parent="1">
          <mxGeometry x="240" y="384" width="80" height="40" as="geometry" />
        </mxCell>
        <mxCell id="YlgnMmfE0ZR5ilOv5xmK-41" value="" style="ellipse;whiteSpace=wrap;html=1;fillColor=none;gradientColor=none;" vertex="1" parent="1">
          <mxGeometry x="342" y="10" width="90" height="50" as="geometry" />
        </mxCell>
        <mxCell id="YlgnMmfE0ZR5ilOv5xmK-42" value="" style="rounded=0;whiteSpace=wrap;html=1;fillColor=none;" vertex="1" parent="1">
          <mxGeometry x="440" width="130" height="70" as="geometry" />
        </mxCell>
      </root>
    </mxGraphModel>
  </diagram>
</mxfile>
